<svg xmlns="http://www.w3.org/2000/svg" width="1278" height="644" viewBox="0 0 1278 644"><defs><style>.cls-1{fill:#009dde;}.cls-2{fill:#fff;}</style></defs><title>Logo</title><g id="bg"><rect class="cls-1" x="317" y="-317" width="644" height="1278" transform="translate(317 961) rotate(-90)"/></g><g id="Layer_1" data-name="Layer 1"><g id="Logo"><path class="cls-2" d="M260.06,258.64h55.73q12.64,0,22,4a44.09,44.09,0,0,1,15.47,10.69,43.6,43.6,0,0,1,9.15,15.47,56.12,56.12,0,0,1,3,18.31,59.07,59.07,0,0,1-3,19,43.32,43.32,0,0,1-9.15,15.63,44,44,0,0,1-15.47,10.69q-9.32,4-22,4H292.46V385h-32.4Zm32.4,29.48v38.72H314q10.21,0,14.42-5.59t4.21-14a26.71,26.71,0,0,0-1-7.21,16.09,16.09,0,0,0-3.24-6.16,15.66,15.66,0,0,0-5.83-4.21,21.62,21.62,0,0,0-8.59-1.54Z"/><path class="cls-2" d="M415.09,258.64h32.24v95.09h60.59V385H415.09Z"/><path class="cls-2" d="M630.55,258.64l51,126.36H646.26l-7-18.47H589.56l-7,18.47H547.28l51.19-126.36Zm-16,41.47-13.93,37.1h27.7Z"/><path class="cls-2" d="M728.56,385V258.64H756.1l56.38,70.63V258.64h32.24V385H817.33L761,314.53V385Z"/><path class="cls-2" d="M901.41,385V258.64h27.54l56.38,70.63V258.64h32.24V385H990.19l-56.38-70.47V385Z"/><path class="cls-2" d="M1106.66,258.64V385h-32.4V258.64Z"/><rect class="cls-2" x="203.34" y="171" width="903" height="31"/><rect class="cls-2" x="203.34" y="442" width="903" height="31"/><path class="cls-2" d="M1106.66,171v56h-32.4V171Z"/><path class="cls-2" d="M1106.66,417v56h-32.4V417Z"/><rect class="cls-2" x="171.34" y="171" width="32" height="302"/></g></g></svg>