<?xml version="1.0" encoding="utf-8"?>
<!-- Generator: Adobe Illustrator 21.0.0, SVG Export Plug-In . SVG Version: 6.00 Build 0)  -->
<svg version="1.1" id="Layer_1" xmlns="http://www.w3.org/2000/svg" xmlns:xlink="http://www.w3.org/1999/xlink" x="0px" y="0px"
	 viewBox="0 0 3285.1 644" style="enable-background:new 0 0 3285.1 644;" xml:space="preserve">
<style type="text/css">
	.st0{fill:#009DDE;}
	.st1{fill:#FFFFFF;}
</style>
<title>Logo</title>
<g id="bg">
	<rect class="st0" width="3285.1" height="644"/>
</g>
<g id="Layer_1_1_">
	<g id="Logo">
		<path class="st1" d="M260.1,258.6h55.7c8.4,0,15.8,1.3,22,4c5.9,2.4,11.1,6.1,15.5,10.7c4.1,4.5,7.2,9.7,9.1,15.5
			c2,5.9,3,12.1,3,18.3c0,6.5-1,12.9-3,19c-1.9,5.8-5,11.1-9.1,15.6c-4.3,4.6-9.6,8.3-15.5,10.7c-6.2,2.7-13.5,4-22,4h-23.3V385
			h-32.4V258.6z M292.5,288.1v38.7H314c6.8,0,11.6-1.9,14.4-5.6c2.8-3.7,4.2-8.4,4.2-14c0-2.4-0.3-4.9-1-7.2
			c-0.6-2.3-1.7-4.4-3.2-6.2c-1.6-1.8-3.6-3.3-5.8-4.2c-2.7-1.1-5.7-1.6-8.6-1.5L292.5,288.1z"/>
		<path class="st1" d="M415.1,258.6h32.2v95.1h60.6V385h-92.8V258.6z"/>
		<path class="st1" d="M630.5,258.6l51,126.4h-35.3l-7-18.5h-49.7l-7,18.5h-35.3l51.2-126.4H630.5z M614.5,300.1l-13.9,37.1h27.7
			L614.5,300.1z"/>
		<path class="st1" d="M728.6,385V258.6h27.5l56.4,70.6v-70.6h32.2V385h-27.4L761,314.5V385H728.6z"/>
		<path class="st1" d="M901.4,385V258.6h27.5l56.4,70.6v-70.6h32.2V385h-27.4l-56.4-70.5V385H901.4z"/>
		<path class="st1" d="M1106.7,258.6V385h-32.4V258.6H1106.7z"/>
		<rect x="203.3" y="171" class="st1" width="903" height="31"/>
		<rect x="203.3" y="442" class="st1" width="903" height="31"/>
		<path class="st1" d="M1106.7,171v56h-32.4v-56H1106.7z"/>
		<path class="st1" d="M1106.7,417v56h-32.4v-56H1106.7z"/>
		<rect x="171.3" y="171" class="st1" width="32" height="302"/>
	</g>
</g>
<g>
	<path class="st1" d="M1394.4,259.2v126.4h-32.4v-47h-51.5v47h-32.2V259.2h32.2v49.1h51.5v-49.1H1394.4z"/>
	<path class="st1" d="M1445.1,322.4c0-9.1,1.8-17.6,5.3-25.5c3.6-7.9,8.4-14.9,14.5-20.8c6.1-5.9,13.2-10.6,21.4-14.1
		c8.2-3.5,16.8-5.2,25.8-5.2c9.2,0,17.8,1.7,26,5.2c8.2,3.5,15.3,8.2,21.4,14.1c6.1,5.9,10.9,12.9,14.4,20.8
		c3.5,7.9,5.3,16.4,5.3,25.5s-1.8,17.6-5.3,25.5c-3.5,7.9-8.3,14.9-14.4,20.8c-6.1,5.9-13.2,10.6-21.4,14.1
		c-8.2,3.5-16.8,5.2-26,5.2c-9.1,0-17.7-1.7-25.8-5.2c-8.2-3.5-15.3-8.2-21.4-14.1c-6.1-5.9-10.9-12.9-14.5-20.8
		C1446.9,339.9,1445.1,331.4,1445.1,322.4z M1477.8,322.4c0,4.8,0.9,9.2,2.7,13.4s4.2,7.9,7.4,10.9c3.1,3.1,6.8,5.5,10.9,7.3
		c4.2,1.8,8.6,2.7,13.4,2.7c4.9,0,9.4-0.9,13.5-2.7c4.2-1.8,7.8-4.2,10.9-7.3c3.1-3.1,5.5-6.7,7.3-10.9s2.7-8.7,2.7-13.4
		c0-4.8-0.9-9.2-2.7-13.4s-4.2-7.9-7.3-10.9c-3.1-3.1-6.7-5.5-10.9-7.3c-4.2-1.8-8.7-2.7-13.5-2.7c-4.8,0-9.2,0.9-13.4,2.7
		c-4.2,1.8-7.8,4.2-10.9,7.3c-3.1,3.1-5.6,6.7-7.4,10.9S1477.8,317.6,1477.8,322.4z"/>
	<path class="st1" d="M1744.4,259.2v71.1c0,8.1-1.3,15.7-3.8,22.7c-2.5,7-6.3,13.1-11.2,18.3c-4.9,5.2-11,9.3-18.2,12.2
		c-7.2,3-15.6,4.5-25,4.5c-9.5,0-17.9-1.5-25.1-4.5c-7.2-3-13.3-7-18.1-12.2c-4.9-5.2-8.5-11.3-11-18.3c-2.5-7-3.7-14.6-3.7-22.7
		v-71.1h32.4v69.2c0,9.2,2.2,16.2,6.5,21.1c4.3,4.9,10.7,7.3,19.1,7.3c8.5,0,15-2.4,19.4-7.3c4.4-4.9,6.6-11.9,6.6-21.1v-69.2
		H1744.4z"/>
	<path class="st1" d="M1825.9,347.6v0.8c0,1.2,0.4,2.5,1.3,3.8c0.9,1.4,2.2,2.6,3.9,3.7c1.7,1.1,3.9,2.1,6.6,2.8
		c2.7,0.8,5.9,1.1,9.6,1.1c6,0,10.2-0.8,12.6-2.5c2.3-1.7,3.5-3.4,3.5-5.3c0-2.7-1.7-5-5-7c-3.3-1.9-8.9-4.2-16.5-6.8
		c-5.1-1.6-10.3-3.5-15.8-5.8c-5.5-2.2-10.5-4.9-15-8.2c-4.5-3.2-8.3-7.2-11.3-11.8c-3-4.6-4.5-10.2-4.5-16.7c0-6,1.2-11.5,3.6-16.3
		c2.4-4.8,5.8-8.9,10.2-12.3s9.6-6,15.6-7.9c6-1.8,12.7-2.8,19.9-2.8c7.3,0,14.2,0.9,20.5,2.8c6.3,1.9,11.8,4.6,16.4,8.2
		c4.6,3.6,8.2,7.9,10.9,12.9c2.6,5,4,10.7,4,16.9v1.8h-31.6v-1.1c0-1.5-0.4-3.1-1.2-4.7c-0.8-1.6-2-3.1-3.6-4.4
		c-1.6-1.3-3.6-2.3-6.1-3.2c-2.4-0.8-5.3-1.2-8.5-1.2c-5.5,0-9.5,0.9-11.8,2.7c-2.4,1.8-3.6,3.8-3.6,5.9c0,2.5,1.6,4.6,4.8,6.3
		c3.2,1.7,8.6,3.9,16.1,6.5c4.3,1.5,9.2,3.4,14.7,5.6c5.5,2.2,10.7,5,15.5,8.4c4.8,3.4,8.9,7.6,12.2,12.5c3.3,4.9,4.9,10.8,4.9,17.7
		c0,6.2-1.3,11.6-3.8,16.3c-2.5,4.7-6.1,8.6-10.5,11.7c-4.5,3.1-9.8,5.5-15.9,7.1c-6.1,1.6-12.8,2.4-20,2.4
		c-7.6,0-14.6-0.9-21.1-2.6c-6.5-1.7-12.2-4.2-17-7.5c-4.8-3.3-8.6-7.4-11.3-12.2s-4.1-10.4-4.1-16.5v-1.5H1825.9z"/>
	<path class="st1" d="M1949.8,259.2h97.1v31.4h-64.7v18.1h53.1v29.3h-53.1v16.2h64.7v31.3h-97.1V259.2z"/>
	<path class="st1" d="M2099.9,259.2h32.4v43.6l39.2-43.6h41.8l-49.9,54.3l52.5,72.1h-40.2l-34.8-47.6l-8.6,9.6v38.1h-32.4V259.2z"/>
	<path class="st1" d="M2261.6,259.2h97.1v31.4H2294v18.1h53.1v29.3H2294v16.2h64.7v31.3h-97.1V259.2z"/>
	<path class="st1" d="M2411.6,259.2h97.1v31.4H2444v18.1h53.1v29.3H2444v16.2h64.7v31.3h-97.1V259.2z"/>
	<path class="st1" d="M2561.7,259.2h55.7c8.4,0,15.7,1.3,22,4c6.2,2.6,11.4,6.2,15.5,10.7c4.1,4.5,7.2,9.6,9.2,15.5
		c2,5.8,3,11.9,3,18.3c0,6.7-1,13-3,19c-2,5.9-5.1,11.2-9.2,15.6c-4.1,4.5-9.3,8-15.5,10.7c-6.2,2.6-13.5,4-22,4h-23.3v28.7h-32.4
		V259.2z M2594.1,288.6v38.7h21.6c6.8,0,11.6-1.9,14.4-5.6c2.8-3.7,4.2-8.4,4.2-14c0-2.5-0.3-4.9-1-7.2c-0.6-2.3-1.7-4.4-3.2-6.2
		c-1.5-1.8-3.5-3.2-5.8-4.2c-2.4-1-5.2-1.5-8.6-1.5H2594.1z"/>
	<path class="st1" d="M2749.1,259.2v126.4h-32.4V259.2H2749.1z"/>
	<path class="st1" d="M2805.8,385.5V259.2h27.5l56.4,70.6v-70.6h32.2v126.4h-27.4l-56.4-70.5v70.5H2805.8z"/>
	<path class="st1" d="M3036.3,311.8h60.9v73.7h-25.4v-11.8c-3.1,4.8-7.6,8.3-13.4,10.7c-5.8,2.4-12,3.6-18.5,3.6
		c-9.2,0-17.8-1.7-25.9-5.2c-8.1-3.5-15.2-8.2-21.3-14.1c-6.1-5.9-10.9-12.9-14.5-20.8c-3.6-7.9-5.3-16.4-5.3-25.5
		s1.8-17.6,5.3-25.5c3.6-7.9,8.4-14.9,14.5-20.8c6.1-5.9,13.2-10.6,21.3-14.1c8.1-3.5,16.7-5.2,25.9-5.2c10.9,0,21,2.4,30.3,7.2
		c9.3,4.8,17,11.2,23.2,19.2l-26.4,17.8c-3.1-4-7-7.2-11.7-9.5c-4.7-2.3-9.8-3.5-15.3-3.5c-4.8,0-9.2,0.9-13.4,2.7
		s-7.9,4.2-10.9,7.3c-3.1,3.1-5.5,6.7-7.3,10.9s-2.7,8.7-2.7,13.4c0,4.8,0.9,9.2,2.7,13.4s4.2,7.9,7.3,10.9
		c3.1,3.1,6.7,5.5,10.9,7.3c4.2,1.8,8.7,2.7,13.4,2.7c5.7,0,10.9-1.3,15.6-3.9c4.6-2.6,8.5-6.1,11.5-10.5v-3.6h-30.6V311.8z"/>
</g>
</svg>
